<svg xmlns="http://www.w3.org/2000/svg" xmlns:xlink="http://www.w3.org/1999/xlink" width="18" height="18" viewBox="0 0 18 18"><g fill="#d9d9d9"><defs><path id="a" d="M0 .001h18v18H0z"/></defs><clipPath id="b"><use xlink:href="#a" overflow="visible"/></clipPath><path clip-path="url(#b)" d="M7.522 12.902c.492.29 1.003.517 1.542.679.95.285 1.918.377 2.899.24 2.231-.311 3.937-1.437 5.101-3.369a6.449 6.449 0 0 0 .891-2.688c.229-2.231-.423-4.167-1.999-5.763A6.56 6.56 0 0 0 12.041.067c-2.182-.28-4.104.319-5.717 1.824-1.171 1.093-1.861 2.456-2.087 4.045-.231 1.627.074 3.154.905 4.573.037.062.027.094-.021.141-.996.965-1.991 1.933-2.986 2.899-.543.528-1.085 1.058-1.631 1.583-.488.47-.642 1.22-.373 1.857s.89 1.039 1.574 1.01c.448-.02.814-.214 1.132-.526 1.193-1.171 2.391-2.336 3.588-3.503l1.097-1.068m-.583-5.965c0-2.258 1.867-4.14 4.089-4.159 2.271-.021 4.162 1.834 4.2 4.087.039 2.323-1.88 4.239-4.17 4.229-2.248-.012-4.12-1.89-4.119-4.157"/></g></svg>