<svg xmlns="http://www.w3.org/2000/svg" width="524.668" height="99.487" viewBox="0 0 524.668 99.487"><path fill="#AFCC49" d="M46.95 0l15.267 23.667h22.828l-20.84 32.207L28.163 0H0l64.173 99.487L128.547 0z"/><path fill="#FFF" d="M150.498 16.854c2.047-.427 3.944-.682 5.692-.767s3.262-.129 4.543-.129c1.704 0 3.409.044 5.115.129 1.705.085 3.283.299 4.734.638l14.455 49.25 14.2-49.25a48.092 48.092 0 0 1 4.605-.573 61.196 61.196 0 0 1 4.862-.194c1.278 0 2.749.044 4.413.129 1.662.085 3.559.34 5.692.767l-25.072 66.008a48.202 48.202 0 0 1-5.118.512 97.688 97.688 0 0 1-4.478.129 84.02 84.02 0 0 1-4.349-.129 26.403 26.403 0 0 1-4.605-.641l-24.689-65.879zM232.623 30.542h-8.571a28.516 28.516 0 0 1-.575-3.518 33.924 33.924 0 0 1-.193-3.518c0-2.303.256-4.562.768-6.781h26.352v66.137c-3.07.512-6.055.767-8.954.767-2.814 0-5.757-.255-8.827-.767v-52.32zM308.225 67.254c1.023 1.709 1.875 3.691 2.559 5.95.682 2.259 1.022 4.925 1.022 7.996-3.411 1.363-6.61 2.238-9.594 2.622a73.39 73.39 0 0 1-9.339.576c-5.544 0-10.362-.878-14.455-2.625-4.093-1.744-7.483-4.156-10.17-7.227-2.687-3.069-4.713-6.716-6.076-10.937-1.365-4.223-2.047-8.806-2.047-13.752 0-4.861.66-9.38 1.982-13.559 1.321-4.18 3.326-7.847 6.014-11.002 2.687-3.155 6.031-5.628 10.041-7.419 4.008-1.791 8.655-2.686 13.943-2.686 1.875 0 3.603.043 5.182.125 1.576.088 3.09.258 4.542.513 1.447.257 2.896.597 4.349 1.024 1.449.427 3.07.98 4.861 1.662 0 1.964-.256 4.159-.769 6.588a28.68 28.68 0 0 1-2.431 6.971c-2.558-.851-4.797-1.425-6.715-1.726-1.918-.296-4.116-.448-6.588-.448-5.288 0-9.275 1.727-11.961 5.183-2.688 3.454-4.03 8.379-4.03 14.774 0 6.907 1.45 11.94 4.35 15.096 2.898 3.155 6.822 4.732 11.769 4.732 1.278 0 2.451-.021 3.518-.064a24.62 24.62 0 0 0 3.135-.318 22.687 22.687 0 0 0 3.135-.768c1.064-.342 2.32-.768 3.773-1.281M328.818 30.542h-8.571a28.516 28.516 0 0 1-.575-3.518 33.913 33.913 0 0 1-.192-3.518c0-2.303.256-4.562.768-6.781H346.6v66.137c-3.07.512-6.056.767-8.954.767-2.814 0-5.757-.255-8.827-.767v-52.32zM358.88 16.726c3.069-.512 6.096-.767 9.081-.767s6.013.255 9.082.767v35.053c0 3.497.275 6.374.832 8.633.555 2.261 1.407 4.052 2.56 5.374 1.149 1.323 2.578 2.26 4.285 2.813 1.704.556 3.709.834 6.012.834 3.154 0 5.798-.298 7.932-.896V16.726a54.393 54.393 0 0 1 8.954-.767c2.983 0 6.014.255 9.083.767v63.579c-2.73.938-6.332 1.854-10.81 2.751-4.479.896-9.147 1.343-14.007 1.343-4.351 0-8.53-.342-12.536-1.024-4.01-.682-7.529-2.131-10.555-4.349-3.028-2.218-5.438-5.458-7.229-9.722-1.791-4.266-2.685-9.935-2.685-17.017V16.726zM428.725 16.726a34.378 34.378 0 0 1 3.582-.574 37.35 37.35 0 0 1 3.966-.193c1.449 0 2.728.065 3.838.193 1.106.126 2.257.319 3.454.574.254.427.488 1.045.702 1.855.211.811.403 1.663.577 2.558.169.896.318 1.771.446 2.623.126.854.235 1.58.319 2.174.682-1.279 1.578-2.558 2.688-3.837 1.108-1.279 2.432-2.429 3.966-3.453 1.536-1.024 3.263-1.856 5.18-2.494 1.92-.641 4.074-.96 6.462-.96 10.316 0 16.928 3.922 19.828 11.769 1.703-3.155 4.112-5.904 7.226-8.251 3.114-2.344 7.057-3.518 11.833-3.518 7.504 0 13.026 2.07 16.567 6.205 3.539 4.135 5.309 10.597 5.309 19.38v42.086a55.152 55.152 0 0 1-9.084.768c-2.984 0-6.011-.256-9.081-.768V45.509c0-4.607-.576-8.145-1.727-10.618-1.153-2.473-3.477-3.711-6.971-3.711-1.452 0-2.88.213-4.288.641-1.405.427-2.685 1.214-3.837 2.367-1.15 1.151-2.089 2.772-2.813 4.862-.726 2.089-1.089 4.796-1.089 8.121v35.691c-3.07.512-6.099.768-9.082.768-2.988 0-6.014-.256-9.084-.768V45.509c0-4.607-.574-8.145-1.727-10.618-1.15-2.473-3.475-3.711-6.972-3.711a15.28 15.28 0 0 0-4.349.641c-1.452.427-2.751 1.258-3.901 2.493-1.152 1.238-2.068 2.965-2.751 5.183-.685 2.219-1.024 5.116-1.024 8.698v34.667c-3.07.512-6.1.768-9.081.768-2.987 0-6.014-.256-9.083-.768V16.726z"/></svg>