<?xml version="1.0" encoding="UTF-8"?><!DOCTYPE svg PUBLIC "-//W3C//DTD SVG 1.1//EN" "http://www.w3.org/Graphics/SVG/1.1/DTD/svg11.dtd"><svg xmlns="http://www.w3.org/2000/svg" xmlns:xlink="http://www.w3.org/1999/xlink"><symbol id="footer__logo" viewBox="0 0 132.7 102.701">

	<polygon clip-path="url(#SVGID_2_)" fill="none" stroke="currentColor" stroke-miterlimit="10" points="66.247,101.779 0.917,0.5 
		29.589,0.5 66.279,57.381 87.495,24.593 64.255,24.593 48.713,0.5 131.781,0.5 	"/>

</symbol><symbol id="header__logo" viewBox="0 0 524.668 99.487">
<polygon fill="#AFCC49" points="46.95,0 62.217,23.667 85.045,23.667 64.205,55.874 28.163,0 0,0 64.173,99.487 128.547,0 "/>
<path fill="#FFFFFF" d="M150.498,16.854c2.047-0.427,3.944-0.682,5.692-0.767s3.262-0.129,4.543-0.129
	c1.704,0,3.409,0.044,5.115,0.129c1.705,0.085,3.283,0.299,4.734,0.638l14.455,49.25l14.2-49.25
	c1.449-0.254,2.984-0.448,4.605-0.573c1.619-0.129,3.24-0.194,4.862-0.194c1.278,0,2.749,0.044,4.413,0.129
	c1.662,0.085,3.559,0.34,5.692,0.767l-25.072,66.008c-1.622,0.255-3.327,0.424-5.118,0.512c-1.791,0.085-3.283,0.129-4.478,0.129
	c-1.278,0-2.73-0.044-4.349-0.129c-1.621-0.088-3.156-0.301-4.605-0.641L150.498,16.854z"/>
<path fill="#FFFFFF" d="M232.623,30.542h-8.571c-0.256-1.106-0.448-2.28-0.575-3.518c-0.129-1.235-0.193-2.408-0.193-3.518
	c0-2.303,0.256-4.562,0.768-6.781h26.352v66.137c-3.07,0.512-6.055,0.767-8.954,0.767c-2.814,0-5.757-0.255-8.827-0.767V30.542z"/>
<path fill="#FFFFFF" d="M308.225,67.254c1.023,1.709,1.875,3.691,2.559,5.95c0.682,2.259,1.022,4.925,1.022,7.996
	c-3.411,1.363-6.61,2.238-9.594,2.622c-2.986,0.383-6.099,0.576-9.339,0.576c-5.544,0-10.362-0.878-14.455-2.625
	c-4.093-1.744-7.483-4.156-10.17-7.227c-2.687-3.069-4.713-6.716-6.076-10.937c-1.365-4.223-2.047-8.806-2.047-13.752
	c0-4.861,0.66-9.38,1.982-13.559c1.321-4.18,3.326-7.847,6.014-11.002c2.687-3.155,6.031-5.628,10.041-7.419
	c4.008-1.791,8.655-2.686,13.943-2.686c1.875,0,3.603,0.043,5.182,0.125c1.576,0.088,3.09,0.258,4.542,0.513
	c1.447,0.257,2.896,0.597,4.349,1.024c1.449,0.427,3.07,0.98,4.861,1.662c0,1.964-0.256,4.159-0.769,6.588
	c-0.511,2.432-1.322,4.756-2.431,6.971c-2.558-0.851-4.797-1.425-6.715-1.726c-1.918-0.296-4.116-0.448-6.588-0.448
	c-5.288,0-9.275,1.727-11.961,5.183c-2.688,3.454-4.03,8.379-4.03,14.774c0,6.907,1.45,11.94,4.35,15.096
	c2.898,3.155,6.822,4.732,11.769,4.732c1.278,0,2.451-0.021,3.518-0.064c1.065-0.041,2.112-0.146,3.135-0.318
	c1.023-0.17,2.066-0.429,3.135-0.768C305.516,68.193,306.772,67.767,308.225,67.254"/>
<path fill="#FFFFFF" d="M328.818,30.542h-8.571c-0.256-1.106-0.448-2.28-0.575-3.518c-0.129-1.235-0.192-2.408-0.192-3.518
	c0-2.303,0.256-4.562,0.768-6.781H346.6v66.137c-3.07,0.512-6.056,0.767-8.954,0.767c-2.814,0-5.757-0.255-8.827-0.767V30.542z"/>
<path fill="#FFFFFF" d="M358.88,16.726c3.069-0.512,6.096-0.767,9.081-0.767s6.013,0.255,9.082,0.767v35.053
	c0,3.497,0.275,6.374,0.832,8.633c0.555,2.261,1.407,4.052,2.56,5.374c1.149,1.323,2.578,2.26,4.285,2.813
	c1.704,0.556,3.709,0.834,6.012,0.834c3.154,0,5.798-0.298,7.932-0.896V16.726c3.07-0.512,6.054-0.767,8.954-0.767
	c2.983,0,6.014,0.255,9.083,0.767v63.579c-2.73,0.938-6.332,1.854-10.81,2.751c-4.479,0.896-9.147,1.343-14.007,1.343
	c-4.351,0-8.53-0.342-12.536-1.024c-4.01-0.682-7.529-2.131-10.555-4.349c-3.028-2.218-5.438-5.458-7.229-9.722
	c-1.791-4.266-2.685-9.935-2.685-17.017V16.726z"/>
<path fill="#FFFFFF" d="M428.725,16.726c1.193-0.255,2.387-0.448,3.582-0.574c1.192-0.128,2.514-0.193,3.966-0.193
	c1.449,0,2.728,0.065,3.838,0.193c1.106,0.126,2.257,0.319,3.454,0.574c0.254,0.427,0.488,1.045,0.702,1.855
	c0.211,0.811,0.403,1.663,0.577,2.558c0.169,0.896,0.318,1.771,0.446,2.623c0.126,0.854,0.235,1.58,0.319,2.174
	c0.682-1.279,1.578-2.558,2.688-3.837c1.108-1.279,2.432-2.429,3.966-3.453c1.536-1.024,3.263-1.856,5.18-2.494
	c1.92-0.641,4.074-0.96,6.462-0.96c10.316,0,16.928,3.922,19.828,11.769c1.703-3.155,4.112-5.904,7.226-8.251
	c3.114-2.344,7.057-3.518,11.833-3.518c7.504,0,13.026,2.07,16.567,6.205c3.539,4.135,5.309,10.597,5.309,19.38v42.086
	c-3.069,0.512-6.099,0.768-9.084,0.768c-2.984,0-6.011-0.256-9.081-0.768V45.509c0-4.607-0.576-8.145-1.727-10.618
	c-1.153-2.473-3.477-3.711-6.971-3.711c-1.452,0-2.88,0.213-4.288,0.641c-1.405,0.427-2.685,1.214-3.837,2.367
	c-1.15,1.151-2.089,2.772-2.813,4.862c-0.726,2.089-1.089,4.796-1.089,8.121v35.691c-3.07,0.512-6.099,0.768-9.082,0.768
	c-2.988,0-6.014-0.256-9.084-0.768V45.509c0-4.607-0.574-8.145-1.727-10.618c-1.15-2.473-3.475-3.711-6.972-3.711
	c-1.452,0-2.899,0.213-4.349,0.641c-1.452,0.427-2.751,1.258-3.901,2.493c-1.152,1.238-2.068,2.965-2.751,5.183
	c-0.685,2.219-1.024,5.116-1.024,8.698v34.667c-3.07,0.512-6.1,0.768-9.081,0.768c-2.987,0-6.014-0.256-9.083-0.768V16.726z"/>
</symbol><symbol id="header__search" viewBox="0 0 18 18">
	<path fill="currentColor" clip-path="url(#SVGID_2_)" d="M7.522,12.902c0.492,0.29,1.003,0.517,1.542,0.679c0.95,0.285,1.918,0.377,2.899,0.24
		c2.231-0.311,3.937-1.437,5.101-3.369c0.497-0.826,0.792-1.729,0.891-2.688c0.229-2.231-0.423-4.167-1.999-5.763
		c-1.077-1.09-2.396-1.738-3.915-1.934c-2.182-0.28-4.104,0.319-5.717,1.824C5.153,2.984,4.463,4.347,4.237,5.936
		C4.006,7.563,4.311,9.09,5.142,10.509c0.037,0.062,0.027,0.094-0.021,0.141c-0.996,0.965-1.991,1.933-2.986,2.899
		c-0.543,0.528-1.085,1.058-1.631,1.583c-0.488,0.47-0.642,1.22-0.373,1.857s0.89,1.039,1.574,1.01
		c0.448-0.02,0.814-0.214,1.132-0.526c1.193-1.171,2.391-2.336,3.588-3.503C6.789,13.615,7.153,13.261,7.522,12.902 M6.939,6.937
		c0-2.258,1.867-4.14,4.089-4.159c2.271-0.021,4.162,1.834,4.2,4.087c0.039,2.323-1.88,4.239-4.17,4.229
		C8.81,11.082,6.938,9.204,6.939,6.937"/>
</symbol><symbol id="icon__multiplayer" viewBox="0 0 409.116 360.771">
<g fill="#fff">
<path d="M299.433,114.037c0,27.82-12.017,53.42-31.887,71.047c43.582,17.813,74.387,53.975,84.904,99.67
	c21.424-5.42,42.796-14.113,56.666-27.866c0-63.365-42.852-107.772-100.455-116.938c28.628-9.436,49.3-36.381,49.3-68.169
	c0-39.643-32.137-71.78-71.78-71.78c-21.037,0-39.96,9.051-53.089,23.471C271.511,35.647,299.433,71.641,299.433,114.037"/>
<path d="M109.683,114.037c0,27.82,12.017,53.42,31.887,71.047c-43.582,17.813-74.387,53.975-84.904,99.67
	C35.242,279.333,13.87,270.64,0,256.887c0-63.365,42.851-107.772,100.455-116.938c-28.628-9.436-49.3-36.381-49.3-68.169
	C51.155,32.137,83.292,0,122.935,0c21.037,0,39.96,9.051,53.089,23.471C137.605,35.647,109.683,71.641,109.683,114.037"/>
<path d="M229.498,189.996c31.9-10.514,54.935-40.538,54.935-75.959c0-44.173-35.81-79.982-79.982-79.982
	s-79.982,35.809-79.982,79.982c0,35.421,23.034,65.445,54.934,75.959C115.215,200.208,67.468,249.69,67.468,320.297
	c34.896,34.603,112.418,40.474,136.982,40.474c24.564,0,102.086-5.871,136.982-40.474
	C341.433,249.69,293.686,200.208,229.498,189.996"/>
</g>
</symbol><symbol id="icon__play" viewBox="0 0 99.486 128.547">
<polygon fill="currentColor" points="0,81.597 23.666,66.33 23.666,43.502 55.873,64.342 0,100.384 0,128.547 99.486,64.374 0,0 "/>
</symbol><symbol id="icon__views" viewBox="0 -0.328 16 10.65">
		<path fill="#87bc03" d="M8-0.328C2.713-0.328,0,5,0,5s2.047,5.328,8,5.328c5.39,0,8-5.308,8-5.308S13.369-0.328,8-0.328z M8.012,8.33
			c-1.933,0-3.33-1.457-3.33-3.33c0-1.874,1.397-3.33,3.33-3.33s3.33,1.457,3.33,3.33C11.342,6.873,9.944,8.33,8.012,8.33z
			 M8.012,3.002C6.907,3.004,6.014,3.93,6.014,5c0,1.069,0.894,1.998,1.998,1.998c1.104,0,1.998-0.929,1.998-1.998
			C10.01,3.929,9.115,3,8.012,3.002z"/>
</symbol><symbol id="social__facebook" viewBox="0 0 20 20">
<path fill="currentColor" d="M13.718,7.18h-2.532V5.52c0-0.624,0.413-0.77,0.704-0.77s1.787,0,1.787,0V2.009L11.216,2C8.483,2,7.862,4.045,7.862,5.353
	V7.18h-1.58v2.826h1.58c0,3.625,0,7.994,0,7.994h3.323c0,0,0-4.412,0-7.994h2.242L13.718,7.18z"/>
</symbol><symbol id="social__gplus" viewBox="0 0 18 18">
<g fill="currentColor">
	<path d="M5.728,8.182v1.964h3.248c-0.131,0.843-0.982,2.471-3.248,2.471
		c-1.956,0-3.551-1.62-3.551-3.616s1.595-3.616,3.551-3.616c1.112,0,1.857,0.475,2.283,0.884L9.564,4.77
		c-0.998-0.933-2.29-1.497-3.837-1.497C2.562,3.273,0,5.833,0,9c0,3.166,2.562,5.728,5.728,5.728c3.305,0,5.498-2.324,5.498-5.597
		c0-0.376-0.041-0.663-0.091-0.949H5.728L5.728,8.182z"/>
	<path d="M18,8.182h-1.637V6.545h-1.636v1.636h-1.637v1.637h1.637v1.636
		h1.636V9.818H18"/>
</g>
</symbol><symbol id="social__twitter" viewBox="0 0 20 20">
<path fill="currentColor" d="M12.445,2.189c-1.746,0.635-2.85,2.274-2.725,4.067l0.042,0.691L9.064,6.863C6.522,6.539,4.301,5.437,2.415,3.587
	L1.493,2.669L1.255,3.347C0.752,4.858,1.074,6.454,2.121,7.528c0.559,0.593,0.433,0.678-0.53,0.324
	C1.255,7.74,0.962,7.655,0.934,7.697C0.836,7.796,1.171,9.081,1.437,9.59c0.363,0.707,1.104,1.398,1.914,1.809l0.685,0.324
	l-0.81,0.014c-0.782,0-0.81,0.014-0.727,0.312c0.279,0.917,1.383,1.893,2.612,2.316l0.866,0.296l-0.754,0.452
	c-1.117,0.651-2.431,1.018-3.744,1.045c-0.628,0.014-1.145,0.07-1.145,0.113c0,0.141,1.705,0.931,2.696,1.243
	c2.976,0.918,6.51,0.522,9.164-1.045c1.886-1.116,3.771-3.333,4.652-5.48c0.475-1.144,0.949-3.234,0.949-4.236
	c0-0.65,0.042-0.735,0.824-1.511c0.462-0.452,0.895-0.946,0.979-1.087c0.14-0.269,0.125-0.269-0.586-0.028
	c-1.188,0.424-1.355,0.367-0.768-0.269c0.432-0.452,0.95-1.271,0.95-1.511c0-0.042-0.209,0.028-0.447,0.155
	c-0.251,0.14-0.81,0.352-1.229,0.479L16.762,3.22l-0.685-0.467C15.7,2.5,15.17,2.217,14.891,2.133
	C14.178,1.935,13.088,1.963,12.445,2.189z"/>
</symbol><symbol id="social__youtube" viewBox="0 0 20 20">
<path fill="currentColor" d="M17.84,6.588c0,0-0.156-1.177-0.635-1.695c-0.609-0.679-1.291-0.684-1.604-0.722c-2.239-0.173-5.598-0.173-5.598-0.173
	H9.996c0,0-3.358,0-5.598,0.173C4.086,4.209,3.404,4.214,2.796,4.893C2.316,5.411,2.16,6.588,2.16,6.588S2,7.969,2,9.35v1.294
	c0,1.381,0.16,2.762,0.16,2.762s0.156,1.177,0.636,1.693c0.608,0.68,1.407,0.66,1.765,0.73C5.84,15.961,10,16.002,10,16.002
	s3.362-0.006,5.602-0.178c0.313-0.041,0.994-0.044,1.604-0.723c0.479-0.517,0.635-1.695,0.635-1.695S18,12.026,18,10.646V9.351
	C18,7.969,17.84,6.588,17.84,6.588z M8.002,13.001V6.999L13.004,10L8.002,13.001z"/>
</symbol></svg>