<?xml version="1.0" standalone="no"?>
<!DOCTYPE svg PUBLIC "-//W3C//DTD SVG 20010904//EN"
 "http://www.w3.org/TR/2001/REC-SVG-20010904/DTD/svg10.dtd">
<svg version="1.0" xmlns="http://www.w3.org/2000/svg"
 width="1032.000000pt" height="1032.000000pt" viewBox="0 0 1032.000000 1032.000000"
 preserveAspectRatio="xMidYMid meet">
<metadata>
Created by potrace 1.11, written by Peter Selinger 2001-2013
</metadata>
<g transform="translate(0.000000,1032.000000) scale(0.100000,-0.100000)"
fill="#000000" stroke="none">
<path d="M19 9121 c12 -16 21 -34 21 -39 0 -6 3 -12 8 -14 4 -1 20 -23 36 -48
16 -25 42 -64 57 -88 16 -23 29 -47 29 -52 0 -6 4 -10 8 -10 5 0 15 -12 23
-27 7 -16 44 -74 81 -130 38 -56 68 -105 68 -108 0 -3 5 -11 11 -18 15 -17
189 -287 189 -293 0 -3 5 -10 10 -17 6 -7 21 -28 33 -47 165 -255 244 -379
250 -393 3 -9 11 -17 17 -17 5 0 10 -5 10 -10 0 -10 107 -181 130 -207 5 -7
10 -14 10 -17 0 -3 39 -65 86 -138 48 -73 107 -163 130 -200 104 -162 138
-213 144 -218 3 -3 14 -22 24 -42 11 -21 23 -38 28 -38 4 0 8 -4 8 -9 0 -9
128 -213 150 -238 5 -7 10 -14 10 -17 0 -3 13 -24 29 -48 84 -127 201 -309
201 -313 0 -3 5 -11 11 -18 14 -16 119 -178 119 -183 0 -3 5 -10 10 -17 6 -7
23 -32 39 -57 16 -25 52 -80 80 -123 28 -43 51 -83 51 -88 0 -5 4 -9 8 -9 5 0
15 -12 22 -27 8 -16 31 -53 51 -83 64 -96 184 -283 213 -332 15 -27 31 -48 35
-48 3 0 12 -15 20 -32 8 -18 17 -35 20 -38 13 -11 121 -181 121 -190 0 -5 4
-10 8 -10 5 0 16 -16 25 -35 9 -19 22 -35 29 -35 6 0 8 -3 5 -7 -4 -3 4 -21
18 -39 14 -18 25 -35 25 -39 0 -3 5 -11 11 -18 5 -7 29 -42 52 -78 23 -36 76
-119 117 -183 41 -65 81 -124 88 -131 6 -8 12 -16 12 -19 0 -8 164 -261 172
-264 5 -2 8 -10 8 -17 0 -8 6 -20 13 -27 21 -22 107 -157 107 -168 0 -5 5 -10
10 -10 6 0 10 -7 10 -15 0 -8 5 -15 10 -15 6 0 10 -6 10 -13 0 -7 9 -23 20
-35 11 -12 20 -24 20 -27 0 -3 22 -39 50 -80 28 -41 50 -77 50 -80 0 -3 12
-23 28 -44 31 -44 36 -51 94 -141 55 -84 66 -102 74 -120 4 -8 10 -17 13 -20
9 -7 71 -100 71 -105 0 -2 42 -69 93 -147 151 -233 193 -298 257 -398 33 -52
103 -160 155 -240 51 -80 126 -197 166 -260 41 -63 77 -119 81 -125 16 -20 58
-86 58 -91 0 -3 5 -10 11 -17 19 -22 99 -149 99 -157 0 -5 4 -10 8 -12 4 -1
46 -63 92 -136 47 -73 110 -171 140 -218 30 -47 93 -144 140 -217 54 -83 86
-126 88 -114 2 9 8 17 13 17 5 0 9 7 9 15 0 8 4 15 8 15 5 0 15 12 23 27 12
23 93 151 129 203 5 8 35 53 64 100 30 47 59 90 65 97 6 7 11 15 11 18 0 4 13
25 29 48 15 23 51 78 79 122 28 44 55 85 59 90 5 6 35 53 68 105 32 52 74 116
92 142 18 26 33 52 33 57 0 5 3 11 8 13 7 3 172 255 172 264 0 3 5 10 11 17 6
7 57 84 114 172 135 209 376 580 395 610 8 12 28 44 45 71 16 27 33 54 38 59
14 18 127 195 127 201 0 2 9 14 20 26 11 12 26 34 32 50 7 15 16 28 19 28 4 0
12 14 19 30 7 17 16 30 21 30 5 0 9 4 9 10 0 5 31 56 68 112 38 57 79 121 92
143 14 22 28 45 33 50 9 11 21 29 207 320 74 116 137 212 140 215 7 7 29 42
37 60 4 8 10 17 14 20 4 3 15 19 25 37 18 30 174 273 311 483 34 52 66 100 72
107 6 7 11 15 11 19 0 4 11 22 25 40 14 18 25 35 25 37 0 2 22 37 48 78 27 41
75 115 107 164 32 50 75 115 96 147 22 31 39 61 39 67 0 6 5 11 10 11 6 0 10
5 10 10 0 6 5 16 10 23 12 14 120 178 120 182 0 1 41 64 90 139 50 75 90 138
90 140 0 2 31 50 68 107 74 113 131 200 211 324 28 44 55 87 61 95 92 140 160
244 160 246 0 3 141 222 170 264 6 8 30 47 55 85 24 39 48 75 52 80 5 6 34 51
65 100 32 50 61 95 65 101 5 5 13 17 18 26 6 9 48 76 95 148 47 72 90 138 95
148 6 10 20 32 32 49 13 17 23 36 23 41 0 6 4 12 8 14 4 2 28 34 53 72 24 38
72 113 106 165 34 53 92 143 129 201 66 103 172 266 250 385 21 33 43 66 47
73 6 9 -649 12 -3267 12 l-3275 0 40 -62 c22 -35 45 -72 52 -82 7 -11 42 -65
78 -120 36 -56 76 -119 89 -141 13 -22 28 -41 32 -43 4 -2 8 -7 8 -12 0 -8 80
-135 99 -157 6 -7 11 -15 11 -18 0 -8 94 -150 102 -153 5 -2 8 -8 8 -13 0 -4
33 -59 73 -121 191 -292 227 -350 227 -358 0 -4 3 -10 7 -12 9 -4 53 -65 53
-73 0 -3 27 -46 60 -95 33 -49 60 -94 60 -99 0 -5 4 -11 8 -13 4 -1 19 -21 32
-43 13 -22 28 -44 33 -50 4 -5 36 -54 70 -107 34 -53 67 -104 72 -113 9 -14
108 -15 923 -15 778 0 913 -2 909 -14 -3 -8 -42 -69 -86 -136 -45 -67 -81
-124 -81 -127 0 -2 -11 -19 -25 -37 -14 -18 -25 -38 -25 -44 0 -7 -3 -12 -8
-12 -4 0 -18 -20 -32 -45 -14 -25 -28 -45 -32 -45 -5 0 -8 -4 -8 -10 0 -5 -31
-56 -68 -112 -37 -57 -83 -128 -102 -158 -19 -30 -38 -59 -43 -65 -4 -5 -20
-30 -36 -55 -16 -25 -52 -80 -80 -123 -28 -43 -51 -81 -51 -83 0 -3 -5 -10
-10 -17 -23 -27 -100 -148 -100 -158 0 -5 -7 -12 -15 -15 -8 -4 -15 -10 -15
-16 0 -5 -38 -68 -85 -139 -47 -72 -85 -134 -85 -139 0 -4 -4 -10 -8 -12 -4
-1 -27 -34 -51 -73 -24 -38 -47 -72 -50 -75 -4 -3 -19 -26 -33 -51 -15 -25
-52 -83 -82 -128 -31 -46 -56 -87 -56 -92 0 -5 -4 -9 -10 -9 -5 0 -10 -4 -10
-10 0 -5 -22 -42 -48 -82 -27 -40 -66 -100 -87 -133 -21 -33 -60 -93 -87 -133
-26 -40 -48 -76 -48 -80 0 -4 -11 -20 -25 -36 -14 -16 -25 -33 -25 -37 0 -4
-6 -14 -12 -21 -7 -8 -18 -22 -24 -33 -21 -38 -23 -36 -94 84 -9 14 -42 67
-74 116 -263 402 -316 485 -316 494 0 4 -9 16 -20 26 -11 10 -20 24 -20 32 0
7 -4 13 -10 13 -5 0 -10 5 -10 11 0 6 -11 25 -25 43 -14 18 -25 38 -25 44 0 6
-3 12 -7 14 -11 4 -63 85 -63 96 0 5 -9 17 -20 27 -11 10 -20 24 -20 32 0 7
-4 13 -10 13 -5 0 -10 5 -10 10 0 6 -5 16 -10 23 -6 7 -46 68 -90 137 -44 69
-84 132 -90 140 -59 87 -150 233 -150 241 0 5 -3 9 -7 9 -5 0 -24 27 -43 60
-19 33 -38 60 -42 60 -5 0 -8 4 -8 9 0 9 -128 213 -150 238 -5 7 -15 24 -22
38 -6 14 -15 25 -20 25 -4 0 -8 5 -8 11 0 6 -14 32 -31 58 -79 115 -209 322
-209 331 0 6 -4 10 -8 10 -5 0 -17 16 -28 35 -10 19 -21 35 -25 35 -4 0 -9 8
-13 18 -3 9 -14 29 -23 44 -10 15 -45 69 -78 120 -32 51 -65 99 -72 106 -7 7
-13 19 -13 27 0 7 -3 15 -8 17 -4 2 -23 28 -42 58 -19 30 -63 100 -100 155
-36 55 -72 112 -79 128 -8 15 -18 27 -23 27 -4 0 -8 4 -8 9 0 5 -18 36 -40 69
-22 33 -40 63 -40 66 0 4 -6 14 -12 21 -27 30 -38 44 -38 49 0 6 -140 224
-211 329 -21 32 -39 59 -39 62 0 2 -28 46 -61 97 -34 51 -74 113 -90 138 -16
25 -32 50 -37 55 -4 6 -11 17 -15 25 -6 14 -148 234 -164 255 -5 6 -16 22 -26
38 l-17 27 -1131 0 -1130 0 20 -29z"/>
</g>
</svg>
