<svg version="1" xmlns="http://www.w3.org/2000/svg" width="1376" height="1376" viewBox="0 0 1032.000000 1032.000000"><path d="M1.9 119.9c1.2 1.6 2.1 3.4 2.1 3.9 0 .6.3 1.2.8 1.4.4.1 2 2.3 3.6 4.8s4.2 6.4 5.7 8.8c1.6 2.3 2.9 4.7 2.9 5.2 0 .6.4 1 .8 1 .5 0 1.5 1.2 2.3 2.7.7 1.6 4.4 7.4 8.1 13 3.8 5.6 6.8 10.5 6.8 10.8 0 .3.5 1.1 1.1 1.8C37.6 175 55 202 55 202.6c0 .3.5 1 1 1.7.6.7 2.1 2.8 3.3 4.7 16.5 25.5 24.4 37.9 25 39.3.3.9 1.1 1.7 1.7 1.7.5 0 1 .5 1 1 0 1 10.7 18.1 13 20.7.5.7 1 1.4 1 1.7 0 .3 3.9 6.5 8.6 13.8 4.8 7.3 10.7 16.3 13 20 10.4 16.2 13.8 21.3 14.4 21.8.3.3 1.4 2.2 2.4 4.2 1.1 2.1 2.3 3.8 2.8 3.8.4 0 .8.4.8.9 0 .9 12.8 21.3 15 23.8.5.7 1 1.4 1 1.7 0 .3 1.3 2.4 2.9 4.8 8.4 12.7 20.1 30.9 20.1 31.3 0 .3.5 1.1 1.1 1.8 1.4 1.6 11.9 17.8 11.9 18.3 0 .3.5 1 1 1.7.6.7 2.3 3.2 3.9 5.7s5.2 8 8 12.3c2.8 4.3 5.1 8.3 5.1 8.8s.4.9.8.9c.5 0 1.5 1.2 2.2 2.7.8 1.6 3.1 5.3 5.1 8.3 6.4 9.6 18.4 28.3 21.3 33.2 1.5 2.7 3.1 4.8 3.5 4.8.3 0 1.2 1.5 2 3.2.8 1.8 1.7 3.5 2 3.8 1.3 1.1 12.1 18.1 12.1 19 0 .5.4 1 .8 1 .5 0 1.6 1.6 2.5 3.5.9 1.9 2.2 3.5 2.9 3.5.6 0 .8.3.5.7-.4.3.4 2.1 1.8 3.9 1.4 1.8 2.5 3.5 2.5 3.9 0 .3.5 1.1 1.1 1.8.5.7 2.9 4.2 5.2 7.8 2.3 3.6 7.6 11.9 11.7 18.3 4.1 6.5 8.1 12.4 8.8 13.1.6.8 1.2 1.6 1.2 1.9 0 .8 16.4 26.1 17.2 26.4.5.2.8 1 .8 1.7 0 .8.6 2 1.3 2.7 2.1 2.2 10.7 15.7 10.7 16.8 0 .5.5 1 1 1 .6 0 1 .7 1 1.5s.5 1.5 1 1.5c.6 0 1 .6 1 1.3 0 .7.9 2.3 2 3.5 1.1 1.2 2 2.4 2 2.7 0 .3 2.2 3.9 5 8s5 7.7 5 8c0 .3 1.2 2.3 2.8 4.4 3.1 4.4 3.6 5.1 9.4 14.1 5.5 8.4 6.6 10.2 7.4 12 .4.8 1 1.7 1.3 2 .9.7 7.1 10 7.1 10.5 0 .2 4.2 6.9 9.3 14.7 15.1 23.3 19.3 29.8 25.7 39.8 3.3 5.2 10.3 16 15.5 24 5.1 8 12.6 19.7 16.6 26 4.1 6.3 7.7 11.9 8.1 12.5 1.6 2 5.8 8.6 5.8 9.1 0 .3.5 1 1.1 1.7 1.9 2.2 9.9 14.9 9.9 15.7 0 .5.4 1 .8 1.2.4.1 4.6 6.3 9.2 13.6 4.7 7.3 11 17.1 14 21.8 3 4.7 9.3 14.4 14 21.7 5.4 8.3 8.6 12.6 8.8 11.4.2-.9.8-1.7 1.3-1.7s.9-.7.9-1.5.4-1.5.8-1.5c.5 0 1.5-1.2 2.3-2.7 1.2-2.3 9.3-15.1 12.9-20.3.5-.8 3.5-5.3 6.4-10 3-4.7 5.9-9 6.5-9.7.6-.7 1.1-1.5 1.1-1.8 0-.4 1.3-2.5 2.9-4.8 1.5-2.3 5.1-7.8 7.9-12.2 2.8-4.4 5.5-8.5 5.9-9 .5-.6 3.5-5.3 6.8-10.5 3.2-5.2 7.4-11.6 9.2-14.2 1.8-2.6 3.3-5.2 3.3-5.7s.3-1.1.8-1.3c.7-.3 17.2-25.5 17.2-26.4 0-.3.5-1 1.1-1.7.6-.7 5.7-8.4 11.4-17.2 13.5-20.9 37.6-58 39.5-61 .8-1.2 2.8-4.4 4.5-7.1 1.6-2.7 3.3-5.4 3.8-5.9 1.4-1.8 12.7-19.5 12.7-20.1 0-.2.9-1.4 2-2.6 1.1-1.2 2.6-3.4 3.2-5 .7-1.5 1.6-2.8 1.9-2.8.4 0 1.2-1.4 1.9-3 .7-1.7 1.6-3 2.1-3s.9-.4.9-1c0-.5 3.1-5.6 6.8-11.2 3.8-5.7 7.9-12.1 9.2-14.3 1.4-2.2 2.8-4.5 3.3-5 .9-1.1 2.1-2.9 20.7-32 7.4-11.6 13.7-21.2 14-21.5.7-.7 2.9-4.2 3.7-6 .4-.8 1-1.7 1.4-2 .4-.3 1.5-1.9 2.5-3.7 1.8-3 17.4-27.3 31.1-48.3 3.4-5.2 6.6-10 7.2-10.7.6-.7 1.1-1.5 1.1-1.9 0-.4 1.1-2.2 2.5-4 1.4-1.8 2.5-3.5 2.5-3.7 0-.2 2.2-3.7 4.8-7.8 2.7-4.1 7.5-11.5 10.7-16.4 3.2-5 7.5-11.5 9.6-14.7 2.2-3.1 3.9-6.1 3.9-6.7 0-.6.5-1.1 1-1.1.6 0 1-.5 1-1 0-.6.5-1.6 1-2.3 1.2-1.4 12-17.8 12-18.2 0-.1 4.1-6.4 9-13.9 5-7.5 9-13.8 9-14 0-.2 3.1-5 6.8-10.7 7.4-11.3 13.1-20 21.1-32.4 2.8-4.4 5.5-8.7 6.1-9.5 9.2-14 16-24.4 16-24.6 0-.3 14.1-22.2 17-26.4.6-.8 3-4.7 5.5-8.5 2.4-3.9 4.8-7.5 5.2-8 .5-.6 3.4-5.1 6.5-10 3.2-5 6.1-9.5 6.5-10.1.5-.5 1.3-1.7 1.8-2.6.6-.9 4.8-7.6 9.5-14.8 4.7-7.2 9-13.8 9.5-14.8.6-1 2-3.2 3.2-4.9 1.3-1.7 2.3-3.6 2.3-4.1 0-.6.4-1.2.8-1.4.4-.2 2.8-3.4 5.3-7.2 2.4-3.8 7.2-11.3 10.6-16.5 3.4-5.3 9.2-14.3 12.9-20.1 6.6-10.3 17.2-26.6 25-38.5 2.1-3.3 4.3-6.6 4.7-7.3.6-.9-64.9-1.2-326.7-1.2H377.1l4 6.2c2.2 3.5 4.5 7.2 5.2 8.2.7 1.1 4.2 6.5 7.8 12 3.6 5.6 7.6 11.9 8.9 14.1 1.3 2.2 2.8 4.1 3.2 4.3.4.2.8.7.8 1.2 0 .8 8 13.5 9.9 15.7.6.7 1.1 1.5 1.1 1.8 0 .8 9.4 15 10.2 15.3.5.2.8.8.8 1.3 0 .4 3.3 5.9 7.3 12.1 19.1 29.2 22.7 35 22.7 35.8 0 .4.3 1 .7 1.2.9.4 5.3 6.5 5.3 7.3 0 .3 2.7 4.6 6 9.5s6 9.4 6 9.9.4 1.1.8 1.3c.4.1 1.9 2.1 3.2 4.3 1.3 2.2 2.8 4.4 3.3 5 .4.5 3.6 5.4 7 10.7 3.4 5.3 6.7 10.4 7.2 11.3.9 1.4 10.8 1.5 92.3 1.5 77.8 0 91.3.2 90.9 1.4-.3.8-4.2 6.9-8.6 13.6-4.5 6.7-8.1 12.4-8.1 12.7 0 .2-1.1 1.9-2.5 3.7-1.4 1.8-2.5 3.8-2.5 4.4 0 .7-.3 1.2-.8 1.2-.4 0-1.8 2-3.2 4.5-1.4 2.5-2.8 4.5-3.2 4.5-.5 0-.8.4-.8 1 0 .5-3.1 5.6-6.8 11.2-3.7 5.7-8.3 12.8-10.2 15.8-1.9 3-3.8 5.9-4.3 6.5-.4.5-2 3-3.6 5.5s-5.2 8-8 12.3c-2.8 4.3-5.1 8.1-5.1 8.3 0 .3-.5 1-1 1.7-2.3 2.7-10 14.8-10 15.8 0 .5-.7 1.2-1.5 1.5-.8.4-1.5 1-1.5 1.6 0 .5-3.8 6.8-8.5 13.9-4.7 7.2-8.5 13.4-8.5 13.9 0 .4-.4 1-.8 1.2-.4.1-2.7 3.4-5.1 7.3-2.4 3.8-4.7 7.2-5 7.5-.4.3-1.9 2.6-3.3 5.1-1.5 2.5-5.2 8.3-8.2 12.8-3.1 4.6-5.6 8.7-5.6 9.2s-.4.9-1 .9c-.5 0-1 .4-1 1 0 .5-2.2 4.2-4.8 8.2-2.7 4-6.6 10-8.7 13.3-2.1 3.3-6 9.3-8.7 13.3-2.6 4-4.8 7.6-4.8 8 0 .4-1.1 2-2.5 3.6s-2.5 3.3-2.5 3.7c0 .4-.6 1.4-1.2 2.1-.7.8-1.8 2.2-2.4 3.3-2.1 3.8-2.3 3.6-9.4-8.4-.9-1.4-4.2-6.7-7.4-11.6-26.3-40.2-31.6-48.5-31.6-49.4 0-.4-.9-1.6-2-2.6s-2-2.4-2-3.2c0-.7-.4-1.3-1-1.3-.5 0-1-.5-1-1.1 0-.6-1.1-2.5-2.5-4.3-1.4-1.8-2.5-3.8-2.5-4.4 0-.6-.3-1.2-.7-1.4-1.1-.4-6.3-8.5-6.3-9.6 0-.5-.9-1.7-2-2.7-1.1-1-2-2.4-2-3.2 0-.7-.4-1.3-1-1.3-.5 0-1-.5-1-1 0-.6-.5-1.6-1-2.3-.6-.7-4.6-6.8-9-13.7-4.4-6.9-8.4-13.2-9-14-5.9-8.7-15-23.3-15-24.1 0-.5-.3-.9-.7-.9-.5 0-2.4-2.7-4.3-6s-3.8-6-4.2-6c-.5 0-.8-.4-.8-.9 0-.9-12.8-21.3-15-23.8-.5-.7-1.5-2.4-2.2-3.8-.6-1.4-1.5-2.5-2-2.5-.4 0-.8-.5-.8-1.1 0-.6-1.4-3.2-3.1-5.8C370 340.6 357 319.9 357 319c0-.6-.4-1-.8-1-.5 0-1.7-1.6-2.8-3.5-1-1.9-2.1-3.5-2.5-3.5-.4 0-.9-.8-1.3-1.8-.3-.9-1.4-2.9-2.3-4.4-1-1.5-4.5-6.9-7.8-12-3.2-5.1-6.5-9.9-7.2-10.6-.7-.7-1.3-1.9-1.3-2.7 0-.7-.3-1.5-.8-1.7-.4-.2-2.3-2.8-4.2-5.8-1.9-3-6.3-10-10-15.5-3.6-5.5-7.2-11.2-7.9-12.8-.8-1.5-1.8-2.7-2.3-2.7-.4 0-.8-.4-.8-.9s-1.8-3.6-4-6.9c-2.2-3.3-4-6.3-4-6.6 0-.4-.6-1.4-1.2-2.1-2.7-3-3.8-4.4-3.8-4.9 0-.6-14-22.4-21.1-32.9-2.1-3.2-3.9-5.9-3.9-6.2 0-.2-2.8-4.6-6.1-9.7-3.4-5.1-7.4-11.3-9-13.8-1.6-2.5-3.2-5-3.7-5.5-.4-.6-1.1-1.7-1.5-2.5-.6-1.4-14.8-23.4-16.4-25.5-.5-.6-1.6-2.2-2.6-3.8L226 117H-.1l2 2.9z"/></svg>