<?xml version="1.0" encoding="utf-8"?>
<!-- Generator: Adobe Illustrator 16.0.0, SVG Export Plug-In . SVG Version: 6.00 Build 0)  -->
<!DOCTYPE svg PUBLIC "-//W3C//DTD SVG 1.1//EN" "http://www.w3.org/Graphics/SVG/1.1/DTD/svg11.dtd">
<svg version="1.1" id="Layer_1" xmlns="http://www.w3.org/2000/svg" xmlns:xlink="http://www.w3.org/1999/xlink" x="0px" y="0px"
	 width="18px" height="18px" viewBox="0 0 18 18" enable-background="new 0 0 18 18" xml:space="preserve">
	<path fill="currentColor" clip-path="url(#SVGID_2_)" d="M7.522,12.902c0.492,0.29,1.003,0.517,1.542,0.679c0.95,0.285,1.918,0.377,2.899,0.24
		c2.231-0.311,3.937-1.437,5.101-3.369c0.497-0.826,0.792-1.729,0.891-2.688c0.229-2.231-0.423-4.167-1.999-5.763
		c-1.077-1.09-2.396-1.738-3.915-1.934c-2.182-0.28-4.104,0.319-5.717,1.824C5.153,2.984,4.463,4.347,4.237,5.936
		C4.006,7.563,4.311,9.09,5.142,10.509c0.037,0.062,0.027,0.094-0.021,0.141c-0.996,0.965-1.991,1.933-2.986,2.899
		c-0.543,0.528-1.085,1.058-1.631,1.583c-0.488,0.47-0.642,1.22-0.373,1.857s0.89,1.039,1.574,1.01
		c0.448-0.02,0.814-0.214,1.132-0.526c1.193-1.171,2.391-2.336,3.588-3.503C6.789,13.615,7.153,13.261,7.522,12.902 M6.939,6.937
		c0-2.258,1.867-4.14,4.089-4.159c2.271-0.021,4.162,1.834,4.2,4.087c0.039,2.323-1.88,4.239-4.17,4.229
		C8.81,11.082,6.938,9.204,6.939,6.937"/>
</svg>
