<?xml version="1.0" encoding="utf-8"?>
<!-- Generator: Adobe Illustrator 16.0.0, SVG Export Plug-In . SVG Version: 6.00 Build 0)  -->
<!DOCTYPE svg PUBLIC "-//W3C//DTD SVG 1.1//EN" "http://www.w3.org/Graphics/SVG/1.1/DTD/svg11.dtd">
<svg version="1.1" id="Layer_1" xmlns="http://www.w3.org/2000/svg" xmlns:xlink="http://www.w3.org/1999/xlink" x="0px" y="0px"
	 width="524.668px" height="99.487px" viewBox="0 0 524.668 99.487" enable-background="new 0 0 524.668 99.487"
	 xml:space="preserve">
<polygon fill="#AFCC49" points="46.95,0 62.217,23.667 85.045,23.667 64.205,55.874 28.163,0 0,0 64.173,99.487 128.547,0 "/>
<path fill="#FFFFFF" d="M150.498,16.854c2.047-0.427,3.944-0.682,5.692-0.767s3.262-0.129,4.543-0.129
	c1.704,0,3.409,0.044,5.115,0.129c1.705,0.085,3.283,0.299,4.734,0.638l14.455,49.25l14.2-49.25
	c1.449-0.254,2.984-0.448,4.605-0.573c1.619-0.129,3.24-0.194,4.862-0.194c1.278,0,2.749,0.044,4.413,0.129
	c1.662,0.085,3.559,0.34,5.692,0.767l-25.072,66.008c-1.622,0.255-3.327,0.424-5.118,0.512c-1.791,0.085-3.283,0.129-4.478,0.129
	c-1.278,0-2.73-0.044-4.349-0.129c-1.621-0.088-3.156-0.301-4.605-0.641L150.498,16.854z"/>
<path fill="#FFFFFF" d="M232.623,30.542h-8.571c-0.256-1.106-0.448-2.28-0.575-3.518c-0.129-1.235-0.193-2.408-0.193-3.518
	c0-2.303,0.256-4.562,0.768-6.781h26.352v66.137c-3.07,0.512-6.055,0.767-8.954,0.767c-2.814,0-5.757-0.255-8.827-0.767V30.542z"/>
<path fill="#FFFFFF" d="M308.225,67.254c1.023,1.709,1.875,3.691,2.559,5.95c0.682,2.259,1.022,4.925,1.022,7.996
	c-3.411,1.363-6.61,2.238-9.594,2.622c-2.986,0.383-6.099,0.576-9.339,0.576c-5.544,0-10.362-0.878-14.455-2.625
	c-4.093-1.744-7.483-4.156-10.17-7.227c-2.687-3.069-4.713-6.716-6.076-10.937c-1.365-4.223-2.047-8.806-2.047-13.752
	c0-4.861,0.66-9.38,1.982-13.559c1.321-4.18,3.326-7.847,6.014-11.002c2.687-3.155,6.031-5.628,10.041-7.419
	c4.008-1.791,8.655-2.686,13.943-2.686c1.875,0,3.603,0.043,5.182,0.125c1.576,0.088,3.09,0.258,4.542,0.513
	c1.447,0.257,2.896,0.597,4.349,1.024c1.449,0.427,3.07,0.98,4.861,1.662c0,1.964-0.256,4.159-0.769,6.588
	c-0.511,2.432-1.322,4.756-2.431,6.971c-2.558-0.851-4.797-1.425-6.715-1.726c-1.918-0.296-4.116-0.448-6.588-0.448
	c-5.288,0-9.275,1.727-11.961,5.183c-2.688,3.454-4.03,8.379-4.03,14.774c0,6.907,1.45,11.94,4.35,15.096
	c2.898,3.155,6.822,4.732,11.769,4.732c1.278,0,2.451-0.021,3.518-0.064c1.065-0.041,2.112-0.146,3.135-0.318
	c1.023-0.17,2.066-0.429,3.135-0.768C305.516,68.193,306.772,67.767,308.225,67.254"/>
<path fill="#FFFFFF" d="M328.818,30.542h-8.571c-0.256-1.106-0.448-2.28-0.575-3.518c-0.129-1.235-0.192-2.408-0.192-3.518
	c0-2.303,0.256-4.562,0.768-6.781H346.6v66.137c-3.07,0.512-6.056,0.767-8.954,0.767c-2.814,0-5.757-0.255-8.827-0.767V30.542z"/>
<path fill="#FFFFFF" d="M358.88,16.726c3.069-0.512,6.096-0.767,9.081-0.767s6.013,0.255,9.082,0.767v35.053
	c0,3.497,0.275,6.374,0.832,8.633c0.555,2.261,1.407,4.052,2.56,5.374c1.149,1.323,2.578,2.26,4.285,2.813
	c1.704,0.556,3.709,0.834,6.012,0.834c3.154,0,5.798-0.298,7.932-0.896V16.726c3.07-0.512,6.054-0.767,8.954-0.767
	c2.983,0,6.014,0.255,9.083,0.767v63.579c-2.73,0.938-6.332,1.854-10.81,2.751c-4.479,0.896-9.147,1.343-14.007,1.343
	c-4.351,0-8.53-0.342-12.536-1.024c-4.01-0.682-7.529-2.131-10.555-4.349c-3.028-2.218-5.438-5.458-7.229-9.722
	c-1.791-4.266-2.685-9.935-2.685-17.017V16.726z"/>
<path fill="#FFFFFF" d="M428.725,16.726c1.193-0.255,2.387-0.448,3.582-0.574c1.192-0.128,2.514-0.193,3.966-0.193
	c1.449,0,2.728,0.065,3.838,0.193c1.106,0.126,2.257,0.319,3.454,0.574c0.254,0.427,0.488,1.045,0.702,1.855
	c0.211,0.811,0.403,1.663,0.577,2.558c0.169,0.896,0.318,1.771,0.446,2.623c0.126,0.854,0.235,1.58,0.319,2.174
	c0.682-1.279,1.578-2.558,2.688-3.837c1.108-1.279,2.432-2.429,3.966-3.453c1.536-1.024,3.263-1.856,5.18-2.494
	c1.92-0.641,4.074-0.96,6.462-0.96c10.316,0,16.928,3.922,19.828,11.769c1.703-3.155,4.112-5.904,7.226-8.251
	c3.114-2.344,7.057-3.518,11.833-3.518c7.504,0,13.026,2.07,16.567,6.205c3.539,4.135,5.309,10.597,5.309,19.38v42.086
	c-3.069,0.512-6.099,0.768-9.084,0.768c-2.984,0-6.011-0.256-9.081-0.768V45.509c0-4.607-0.576-8.145-1.727-10.618
	c-1.153-2.473-3.477-3.711-6.971-3.711c-1.452,0-2.88,0.213-4.288,0.641c-1.405,0.427-2.685,1.214-3.837,2.367
	c-1.15,1.151-2.089,2.772-2.813,4.862c-0.726,2.089-1.089,4.796-1.089,8.121v35.691c-3.07,0.512-6.099,0.768-9.082,0.768
	c-2.988,0-6.014-0.256-9.084-0.768V45.509c0-4.607-0.574-8.145-1.727-10.618c-1.15-2.473-3.475-3.711-6.972-3.711
	c-1.452,0-2.899,0.213-4.349,0.641c-1.452,0.427-2.751,1.258-3.901,2.493c-1.152,1.238-2.068,2.965-2.751,5.183
	c-0.685,2.219-1.024,5.116-1.024,8.698v34.667c-3.07,0.512-6.1,0.768-9.081,0.768c-2.987,0-6.014-0.256-9.083-0.768V16.726z"/>
</svg>
