<?xml version="1.0" encoding="utf-8"?>
<!-- Generator: Adobe Illustrator 16.0.0, SVG Export Plug-In . SVG Version: 6.00 Build 0)  -->
<!DOCTYPE svg PUBLIC "-//W3C//DTD SVG 1.1//EN" "http://www.w3.org/Graphics/SVG/1.1/DTD/svg11.dtd">
<svg version="1.1" id="Layer_1" xmlns="http://www.w3.org/2000/svg" xmlns:xlink="http://www.w3.org/1999/xlink" x="0px" y="0px"
	 width="409.116px" height="360.771px" viewBox="0 0 409.116 360.771" enable-background="new 0 0 409.116 360.771"
	 xml:space="preserve">
<g fill="#fff">
<path d="M299.433,114.037c0,27.82-12.017,53.42-31.887,71.047c43.582,17.813,74.387,53.975,84.904,99.67
	c21.424-5.42,42.796-14.113,56.666-27.866c0-63.365-42.852-107.772-100.455-116.938c28.628-9.436,49.3-36.381,49.3-68.169
	c0-39.643-32.137-71.78-71.78-71.78c-21.037,0-39.96,9.051-53.089,23.471C271.511,35.647,299.433,71.641,299.433,114.037"/>
<path d="M109.683,114.037c0,27.82,12.017,53.42,31.887,71.047c-43.582,17.813-74.387,53.975-84.904,99.67
	C35.242,279.333,13.87,270.64,0,256.887c0-63.365,42.851-107.772,100.455-116.938c-28.628-9.436-49.3-36.381-49.3-68.169
	C51.155,32.137,83.292,0,122.935,0c21.037,0,39.96,9.051,53.089,23.471C137.605,35.647,109.683,71.641,109.683,114.037"/>
<path d="M229.498,189.996c31.9-10.514,54.935-40.538,54.935-75.959c0-44.173-35.81-79.982-79.982-79.982
	s-79.982,35.809-79.982,79.982c0,35.421,23.034,65.445,54.934,75.959C115.215,200.208,67.468,249.69,67.468,320.297
	c34.896,34.603,112.418,40.474,136.982,40.474c24.564,0,102.086-5.871,136.982-40.474
	C341.433,249.69,293.686,200.208,229.498,189.996"/>
</g>
</svg>
