<?xml version="1.0" encoding="utf-8"?>
<!-- Generator: Adobe Illustrator 16.0.0, SVG Export Plug-In . SVG Version: 6.00 Build 0)  -->
<!DOCTYPE svg PUBLIC "-//W3C//DTD SVG 1.1//EN" "http://www.w3.org/Graphics/SVG/1.1/DTD/svg11.dtd">
<svg version="1.1" id="Layer_1" xmlns="http://www.w3.org/2000/svg" xmlns:xlink="http://www.w3.org/1999/xlink" x="0px" y="0px"
	 width="16px" height="10.65px" viewBox="0 -0.328 16 10.65" enable-background="new 0 -0.328 16 10.65" xml:space="preserve">
		<path fill="#87bc03" d="M8-0.328C2.713-0.328,0,5,0,5s2.047,5.328,8,5.328c5.39,0,8-5.308,8-5.308S13.369-0.328,8-0.328z M8.012,8.33
			c-1.933,0-3.33-1.457-3.33-3.33c0-1.874,1.397-3.33,3.33-3.33s3.33,1.457,3.33,3.33C11.342,6.873,9.944,8.33,8.012,8.33z
			 M8.012,3.002C6.907,3.004,6.014,3.93,6.014,5c0,1.069,0.894,1.998,1.998,1.998c1.104,0,1.998-0.929,1.998-1.998
			C10.01,3.929,9.115,3,8.012,3.002z"/>
</svg>
