<?xml version="1.0" encoding="utf-8"?>
<!-- Generator: Adobe Illustrator 16.0.0, SVG Export Plug-In . SVG Version: 6.00 Build 0)  -->
<!DOCTYPE svg PUBLIC "-//W3C//DTD SVG 1.1//EN" "http://www.w3.org/Graphics/SVG/1.1/DTD/svg11.dtd">
<svg version="1.1" id="Layer_1" xmlns="http://www.w3.org/2000/svg" xmlns:xlink="http://www.w3.org/1999/xlink" x="0px" y="0px"
	 width="20px" height="20px" viewBox="0 0 20 20" enable-background="new 0 0 20 20" xml:space="preserve">
<path fill="currentColor" d="M12.445,2.189c-1.746,0.635-2.85,2.274-2.725,4.067l0.042,0.691L9.064,6.863C6.522,6.539,4.301,5.437,2.415,3.587
	L1.493,2.669L1.255,3.347C0.752,4.858,1.074,6.454,2.121,7.528c0.559,0.593,0.433,0.678-0.53,0.324
	C1.255,7.74,0.962,7.655,0.934,7.697C0.836,7.796,1.171,9.081,1.437,9.59c0.363,0.707,1.104,1.398,1.914,1.809l0.685,0.324
	l-0.81,0.014c-0.782,0-0.81,0.014-0.727,0.312c0.279,0.917,1.383,1.893,2.612,2.316l0.866,0.296l-0.754,0.452
	c-1.117,0.651-2.431,1.018-3.744,1.045c-0.628,0.014-1.145,0.07-1.145,0.113c0,0.141,1.705,0.931,2.696,1.243
	c2.976,0.918,6.51,0.522,9.164-1.045c1.886-1.116,3.771-3.333,4.652-5.48c0.475-1.144,0.949-3.234,0.949-4.236
	c0-0.65,0.042-0.735,0.824-1.511c0.462-0.452,0.895-0.946,0.979-1.087c0.14-0.269,0.125-0.269-0.586-0.028
	c-1.188,0.424-1.355,0.367-0.768-0.269c0.432-0.452,0.95-1.271,0.95-1.511c0-0.042-0.209,0.028-0.447,0.155
	c-0.251,0.14-0.81,0.352-1.229,0.479L16.762,3.22l-0.685-0.467C15.7,2.5,15.17,2.217,14.891,2.133
	C14.178,1.935,13.088,1.963,12.445,2.189z"/>
</svg>
