<?xml version="1.0" encoding="utf-8"?>
<!-- Generator: Adobe Illustrator 16.0.0, SVG Export Plug-In . SVG Version: 6.00 Build 0)  -->
<!DOCTYPE svg PUBLIC "-//W3C//DTD SVG 1.1//EN" "http://www.w3.org/Graphics/SVG/1.1/DTD/svg11.dtd">
<svg version="1.1" id="Layer_1" xmlns="http://www.w3.org/2000/svg" xmlns:xlink="http://www.w3.org/1999/xlink" x="0px" y="0px"
	 width="18px" height="18px" viewBox="0 0 18 18" enable-background="new 0 0 18 18" xml:space="preserve">
<g fill="currentColor">
	<path d="M5.728,8.182v1.964h3.248c-0.131,0.843-0.982,2.471-3.248,2.471
		c-1.956,0-3.551-1.62-3.551-3.616s1.595-3.616,3.551-3.616c1.112,0,1.857,0.475,2.283,0.884L9.564,4.77
		c-0.998-0.933-2.29-1.497-3.837-1.497C2.562,3.273,0,5.833,0,9c0,3.166,2.562,5.728,5.728,5.728c3.305,0,5.498-2.324,5.498-5.597
		c0-0.376-0.041-0.663-0.091-0.949H5.728L5.728,8.182z"/>
	<path d="M18,8.182h-1.637V6.545h-1.636v1.636h-1.637v1.637h1.637v1.636
		h1.636V9.818H18"/>
</g>
</svg>
