<?xml version="1.0" encoding="utf-8"?>
<!-- Generator: Adobe Illustrator 16.0.0, SVG Export Plug-In . SVG Version: 6.00 Build 0)  -->
<!DOCTYPE svg PUBLIC "-//W3C//DTD SVG 1.1//EN" "http://www.w3.org/Graphics/SVG/1.1/DTD/svg11.dtd">
<svg version="1.1" id="Layer_1" xmlns="http://www.w3.org/2000/svg" xmlns:xlink="http://www.w3.org/1999/xlink" x="0px" y="0px"
	 width="20px" height="20px" viewBox="0 0 20 20" enable-background="new 0 0 20 20" xml:space="preserve">
<path fill="currentColor" d="M17.84,6.588c0,0-0.156-1.177-0.635-1.695c-0.609-0.679-1.291-0.684-1.604-0.722c-2.239-0.173-5.598-0.173-5.598-0.173
	H9.996c0,0-3.358,0-5.598,0.173C4.086,4.209,3.404,4.214,2.796,4.893C2.316,5.411,2.16,6.588,2.16,6.588S2,7.969,2,9.35v1.294
	c0,1.381,0.16,2.762,0.16,2.762s0.156,1.177,0.636,1.693c0.608,0.68,1.407,0.66,1.765,0.73C5.84,15.961,10,16.002,10,16.002
	s3.362-0.006,5.602-0.178c0.313-0.041,0.994-0.044,1.604-0.723c0.479-0.517,0.635-1.695,0.635-1.695S18,12.026,18,10.646V9.351
	C18,7.969,17.84,6.588,17.84,6.588z M8.002,13.001V6.999L13.004,10L8.002,13.001z"/>
</svg>
